<svg width="350" height="95" viewBox="0 0 350 95" xmlns="http://www.w3.org/2000/svg">
  <g stroke="#ffffff" stroke-width="0.25mm" fill-rule="evenodd" vector-effect="non-scaling-stroke" font-size="9pt" stroke-linecap="round">
    <!-- "easy" -->
    <path fill="#0E5287" d="M 0 72.002 L 11.8 72.002 L 11.8 49.402 L 30.8 49.402 C 31.5 49.402 32.2 49.402 32.9 49.302 L 43.4 72.002 L 56.4 72.002 L 44 45.202 C 50.5 41.102 54.7 33.602 54.7 24.702 C 54.7 10.502 44.9 0.002 31.6 0.002 L 0 0.002 L 0 72.002 Z M 107.7 64.802 L 100.2 57.302 C 97.2 60.602 92.6 62.302 87.8 62.302 C 80.4 62.302 74.8 58.502 72.8 52.302 L 110 52.302 C 110.2 50.302 110.5 48.202 110.5 46.302 C 110.5 31.402 100.8 21.002 86.6 21.002 C 72.1 21.002 61.1 32.302 61.1 47.002 C 61.1 61.702 72.6 73.002 87.7 73.002 C 95.9 73.002 102.9 70.102 107.7 64.802 Z M 142.9 21.002 C 128.6 21.002 116.9 32.602 116.9 47.002 C 116.9 61.302 128.6 73.002 142.9 73.002 C 157.3 73.002 168.9 61.302 168.9 47.002 C 168.9 32.602 157.3 21.002 142.9 21.002 Z M 11.8 11.802 L 30.1 11.802 C 38 11.802 43 16.802 43 24.702 C 43 32.502 37.9 37.602 30 37.602 L 11.8 37.602 L 11.8 11.802 Z M 128.7 47.002 C 128.7 39.202 135.1 32.802 142.9 32.802 C 150.7 32.802 157.1 39.202 157.1 47.002 C 157.1 54.802 150.7 61.202 142.9 61.202 C 135.1 61.202 128.7 54.802 128.7 47.002 Z M 99.4 43.102 L 72.6 43.102 C 73.6 36.202 79.5 31.602 86.4 31.602 C 93.1 31.602 98.4 36.002 99.4 43.102 Z"/>
    
    <!-- "pay" -->
    <path fill="#149a91" d="M 137.7 51 L 135.7 55.6 C 133.4 60.8 130.2 62.6 125.5 62.6 C 124.5 62.6 123.6 62.5 122.7 62.5 L 122.7 73.9 C 124.2 74 125.8 74 127.3 74 C 136.6 74 143.4 69.5 147.2 60 L 170.7 1 L 157.9 1 L 144.2 36.2 L 129.8 1 L 117 1 L 137.7 51 Z M 0 74.8 L 11.8 74.8 L 11.8 44.7 C 15.1 48.7 20.9 52 27.2 52 C 41.6 52 52 40.3 52 26 C 52 11.6 41.6 0 27.2 0 C 20.9 0 15.1 3.3 11.8 7.4 L 11.8 1 L 0 1 L 0 74.8 Z M 98.6 44.6 L 98.6 51 L 110.4 51 L 110.4 1 L 98.6 1 L 98.6 7.2 C 95.3 3.3 89.5 0 83.2 0 C 68.9 0 58.4 11.7 58.4 26 C 58.4 40.3 68.9 52 83.2 52 C 89.5 52 95.3 48.7 98.6 44.6 Z M 26 11.8 C 33.8 11.8 40.2 18.2 40.2 26 C 40.2 33.8 33.8 40.2 26 40.2 C 18.2 40.2 11.8 33.8 11.8 26 C 11.8 18.2 18.2 11.8 26 11.8 Z M 84.4 11.8 C 92.2 11.8 98.6 18.2 98.6 26 C 98.6 33.8 92.2 40.2 84.4 40.2 C 76.6 40.2 70.2 33.8 70.2 26 C 70.2 18.2 76.6 11.8 84.4 11.8 Z" transform="translate(175, 20)"/>
  </g>
</svg>
