<svg width="350" height="95" viewBox="0 0 350 95" xmlns="http://www.w3.org/2000/svg">
  <g stroke="#ffffff" stroke-width="0.25mm" fill-rule="evenodd" vector-effect="non-scaling-stroke" font-size="9pt" stroke-linecap="round">
    <!-- "easy" -->
    <path fill="#0E5287" d="M 0 72.002 L 11.8 72.002 L 11.8 49.402 L 30.8 49.402 C 31.5 49.402 32.2 49.402 32.9 49.302 L 43.4 72.002 L 56.4 72.002 L 44 45.202 C 50.5 41.102 54.7 33.602 54.7 24.702 C 54.7 10.502 44.9 0.002 31.6 0.002 L 0 0.002 L 0 72.002 Z M 107.7 64.802 L 100.2 57.302 C 97.2 60.602 92.6 62.302 87.8 62.302 C 80.4 62.302 74.8 58.502 72.8 52.302 L 110 52.302 C 110.2 50.302 110.5 48.202 110.5 46.302 C 110.5 31.402 100.8 21.002 86.6 21.002 C 72.1 21.002 61.1 32.302 61.1 47.002 C 61.1 61.702 72.6 73.002 87.7 73.002 C 95.9 73.002 102.9 70.102 107.7 64.802 Z M 142.9 21.002 C 128.6 21.002 116.9 32.602 116.9 47.002 C 116.9 61.302 128.6 73.002 142.9 73.002 C 157.3 73.002 168.9 61.302 168.9 47.002 C 168.9 32.602 157.3 21.002 142.9 21.002 Z M 11.8 11.802 L 30.1 11.802 C 38 11.802 43 16.802 43 24.702 C 43 32.502 37.9 37.602 30 37.602 L 11.8 37.602 L 11.8 11.802 Z M 128.7 47.002 C 128.7 39.202 135.1 32.802 142.9 32.802 C 150.7 32.802 157.1 39.202 157.1 47.002 C 157.1 54.802 150.7 61.202 142.9 61.202 C 135.1 61.202 128.7 54.802 128.7 47.002 Z M 99.4 43.102 L 72.6 43.102 C 73.6 36.202 79.5 31.602 86.4 31.602 C 93.1 31.602 98.4 36.002 99.4 43.102 Z"/>
    
    <!-- "pay" -->
    <path fill="#149a91" d="M 138.4 72.002 L 136.4 76.602 C 134.1 81.802 130.9 83.602 126.2 83.602 C 125.2 83.602 124.3 83.502 123.4 83.502 L 123.4 94.902 C 124.9 95.002 126.5 95.002 128 95.002 C 137.3 95.002 144.1 90.502 147.9 81.002 L 171.4 22.002 L 158.6 22.002 L 144.9 57.202 L 130.5 22.002 L 117.7 22.002 L 138.4 72.002 Z M 0 72.002 L 11.8 72.002 L 11.8 49.402 L 30 49.402 C 43.3 49.402 53.1 38.902 53.1 24.702 C 53.1 10.502 43.3 0.002 30 0.002 L 0 0.002 L 0 72.002 Z M 99.3 65.602 L 99.3 72.002 L 111.1 72.002 L 111.1 22.002 L 99.3 22.002 L 99.3 28.202 C 96 24.302 90.2 21.002 83.9 21.002 C 69.6 21.002 59.1 32.702 59.1 47.002 C 59.1 61.302 69.6 73.002 83.9 73.002 C 90.2 73.002 96 69.702 99.3 65.602 Z M 28.4 37.602 L 11.8 37.602 L 11.8 11.802 L 28.5 11.802 C 36.4 11.802 41.4 16.802 41.4 24.702 C 41.4 32.502 36.3 37.602 28.4 37.602 Z M 85.1 32.802 C 92.9 32.802 99.3 39.202 99.3 47.002 C 99.3 54.802 92.9 61.202 85.1 61.202 C 77.3 61.202 70.9 54.802 70.9 47.002 C 70.9 39.202 77.3 32.802 85.1 32.802 Z" transform="translate(175, 0)"/>
  </g>
</svg>
