<svg width="400" height="75" viewBox="0 0 400 75" xmlns="http://www.w3.org/2000/svg">
  <g stroke="#ffffff" stroke-width="0.25mm" fill-rule="evenodd" vector-effect="non-scaling-stroke" font-size="9pt" stroke-linecap="round">
    <!-- "easy" -->
    <path fill="#0E5287" d="M 184.101 51.002 L 182.101 55.602 C 179.801 60.802 176.601 62.602 171.901 62.602 C 170.901 62.602 170.001 62.502 169.101 62.502 L 169.101 73.902 C 170.601 74.002 172.201 74.002 173.701 74.002 C 183.001 74.002 189.801 69.502 193.601 60.002 L 217.101 1.002 L 204.301 1.002 L 190.601 36.202 L 176.201 1.002 L 163.401 1.002 L 184.101 51.002 Z M 118.901 1.002 L 118.901 12.002 L 141.901 12.002 L 117.701 42.202 L 117.701 51.002 L 159.301 51.002 L 159.301 40.002 L 133.501 40.002 L 157.801 9.702 L 157.801 1.002 L 118.901 1.002 Z M 46.601 43.802 L 39.101 36.302 C 36.101 39.602 31.501 41.302 26.701 41.302 C 19.301 41.302 13.701 37.502 11.701 31.302 L 48.901 31.302 C 49.101 29.302 49.401 27.202 49.401 25.302 C 49.401 10.402 39.701 0.002 25.501 0.002 C 11.001 0.002 0.001 11.302 0.001 26.002 C 0.001 40.702 11.501 52.002 26.601 52.002 C 34.801 52.002 41.801 49.102 46.601 43.802 Z M 96.001 44.602 L 96.001 51.002 L 107.801 51.002 L 107.801 1.002 L 96.001 1.002 L 96.001 7.202 C 92.701 3.302 86.901 0.002 80.601 0.002 C 66.301 0.002 55.801 11.702 55.801 26.002 C 55.801 40.302 66.301 52.002 80.601 52.002 C 86.901 52.002 92.701 48.702 96.001 44.602 Z M 81.801 11.802 C 89.601 11.802 96.001 18.202 96.001 26.002 C 96.001 33.802 89.601 40.202 81.801 40.202 C 74.001 40.202 67.601 33.802 67.601 26.002 C 67.601 18.202 74.001 11.802 81.801 11.802 Z M 38.301 22.102 L 11.501 22.102 C 12.501 15.202 18.401 10.602 25.301 10.602 C 32.001 10.602 37.301 15.002 38.301 22.102 Z"/>
    
    <!-- "pay" -->
    <path fill="#149a91" d="M 137.7 51 L 135.7 55.6 C 133.4 60.8 130.2 62.6 125.5 62.6 C 124.5 62.6 123.6 62.5 122.7 62.5 L 122.7 73.9 C 124.2 74 125.8 74 127.3 74 C 136.6 74 143.4 69.5 147.2 60 L 170.7 1 L 157.9 1 L 144.2 36.2 L 129.8 1 L 117 1 L 137.7 51 Z M 0 74.8 L 11.8 74.8 L 11.8 44.7 C 15.1 48.7 20.9 52 27.2 52 C 41.6 52 52 40.3 52 26 C 52 11.6 41.6 0 27.2 0 C 20.9 0 15.1 3.3 11.8 7.4 L 11.8 1 L 0 1 L 0 74.8 Z M 98.6 44.6 L 98.6 51 L 110.4 51 L 110.4 1 L 98.6 1 L 98.6 7.2 C 95.3 3.3 89.5 0 83.2 0 C 68.9 0 58.4 11.7 58.4 26 C 58.4 40.3 68.9 52 83.2 52 C 89.5 52 95.3 48.7 98.6 44.6 Z M 26 11.8 C 33.8 11.8 40.2 18.2 40.2 26 C 40.2 33.8 33.8 40.2 26 40.2 C 18.2 40.2 11.8 33.8 11.8 26 C 11.8 18.2 18.2 11.8 26 11.8 Z M 84.4 11.8 C 92.2 11.8 98.6 18.2 98.6 26 C 98.6 33.8 92.2 40.2 84.4 40.2 C 76.6 40.2 70.2 33.8 70.2 26 C 70.2 18.2 76.6 11.8 84.4 11.8 Z" transform="translate(225, 0)"/>
  </g>
</svg>
