<svg width="470" height="100" viewBox="0 0 470 100" xmlns="http://www.w3.org/2000/svg">
  <g stroke="#ffffff" stroke-width="0.25mm" fill-rule="evenodd" vector-effect="non-scaling-stroke" font-size="9pt" stroke-linecap="round">
    <!-- "easy" -->
    <path fill="#fdd109" d="M 184.101 51.002 L 182.101 55.602 C 179.801 60.802 176.601 62.602 171.901 62.602 C 170.901 62.602 170.001 62.502 169.101 62.502 L 169.101 73.902 C 170.601 74.002 172.201 74.002 173.701 74.002 C 183.001 74.002 189.801 69.502 193.601 60.002 L 217.101 1.002 L 204.301 1.002 L 190.601 36.202 L 176.201 1.002 L 163.401 1.002 L 184.101 51.002 Z M 118.901 1.002 L 118.901 12.002 L 141.901 12.002 L 117.701 42.202 L 117.701 51.002 L 159.301 51.002 L 159.301 40.002 L 133.501 40.002 L 157.801 9.702 L 157.801 1.002 L 118.901 1.002 Z M 46.601 43.802 L 39.101 36.302 C 36.101 39.602 31.501 41.302 26.701 41.302 C 19.301 41.302 13.701 37.502 11.701 31.302 L 48.901 31.302 C 49.101 29.302 49.401 27.202 49.401 25.302 C 49.401 10.402 39.701 0.002 25.501 0.002 C 11.001 0.002 0.001 11.302 0.001 26.002 C 0.001 40.702 11.501 52.002 26.601 52.002 C 34.801 52.002 41.801 49.102 46.601 43.802 Z M 96.001 44.602 L 96.001 51.002 L 107.801 51.002 L 107.801 1.002 L 96.001 1.002 L 96.001 7.202 C 92.701 3.302 86.901 0.002 80.601 0.002 C 66.301 0.002 55.801 11.702 55.801 26.002 C 55.801 40.302 66.301 52.002 80.601 52.002 C 86.901 52.002 92.701 48.702 96.001 44.602 Z M 81.801 11.802 C 89.601 11.802 96.001 18.202 96.001 26.002 C 96.001 33.802 89.601 40.202 81.801 40.202 C 74.001 40.202 67.601 33.802 67.601 26.002 C 67.601 18.202 74.001 11.802 81.801 11.802 Z M 38.301 22.102 L 11.501 22.102 C 12.501 15.202 18.401 10.602 25.301 10.602 C 32.001 10.602 37.301 15.002 38.301 22.102 Z" transform="translate(0, 24)"/>
    
    <!-- "pay" -->
    <path fill="#000000" d="M 176.1 65.6 L 176.1 72 L 187.9 72 L 187.9 0 L 176.1 0 L 176.1 28.2 C 172.8 24.3 167 21 160.7 21 C 146.4 21 135.9 32.7 135.9 47 C 135.9 61.3 146.4 73 160.7 73 C 167 73 172.8 69.7 176.1 65.6 Z M 243.5 64.8 L 236 57.3 C 233 60.6 228.4 62.3 223.6 62.3 C 216.2 62.3 210.6 58.5 208.6 52.3 L 245.8 52.3 C 246 50.3 246.3 48.2 246.3 46.3 C 246.3 31.4 236.6 21 222.4 21 C 207.9 21 196.9 32.3 196.9 47 C 196.9 61.7 208.4 73 223.5 73 C 231.7 73 238.7 70.1 243.5 64.8 Z M 0 22 L 0 33.8 L 9.2 33.8 L 9.2 55.2 C 9.2 67.8 14 73 25.4 73 C 28.1 73 31.4 72.6 33.7 72 L 33.7 60.8 C 31.2 61.3 29.2 61.6 27 61.6 C 22.2 61.6 21 59.6 21 51.7 L 21 33.8 L 33.7 33.8 L 33.7 22 L 21 22 L 21 8.6 L 9.2 8.6 L 9.2 17.7 C 9.2 20.3 7.4 22 4.8 22 L 0 22 Z M 115.1 65.6 L 115.1 72 L 126.9 72 L 126.9 22 L 115.1 22 L 115.1 28.2 C 111.8 24.3 106 21 99.7 21 C 85.4 21 74.9 32.7 74.9 47 C 74.9 61.3 85.4 73 99.7 73 C 106 73 111.8 69.7 115.1 65.6 Z M 54.9 72 L 54.9 45 C 54.9 37.4 61.1 32.1 68.6 32.1 C 69 32.1 69.5 32.1 69.9 32.2 L 69.9 21 C 63.5 21 58.3 23.7 54.9 27.7 L 54.9 22 L 43.1 22 L 43.1 72 L 54.9 72 Z M 100.9 32.8 C 108.7 32.8 115.1 39.2 115.1 47 C 115.1 54.8 108.7 61.2 100.9 61.2 C 93.1 61.2 86.7 54.8 86.7 47 C 86.7 39.2 93.1 32.8 100.9 32.8 Z M 161.9 32.8 C 169.7 32.8 176.1 39.2 176.1 47 C 176.1 54.8 169.7 61.2 161.9 61.2 C 154.1 61.2 147.7 54.8 147.7 47 C 147.7 39.2 154.1 32.8 161.9 32.8 Z M 235.2 43.1 L 208.4 43.1 C 209.4 36.2 215.3 31.6 222.2 31.6 C 228.9 31.6 234.2 36 235.2 43.1 Z" transform="translate(220, 4)"/>
  </g>
</svg>
