<?xml version="1.0" encoding="UTF-8"?><svg id="Layer_1" xmlns="http://www.w3.org/2000/svg" viewBox="0 0 16 16"><defs><style>.cls-1,.cls-2{stroke-width:0px;}.cls-2{fill:#01e194;}</style></defs><rect class="cls-1" y="-.01" width="16" height="16"/><path class="cls-2" d="M13.25,14.32h-3.11s0-7.54,0-7.54c0-.62-.5-1.12-1.12-1.12H1.89s0-2.85,0-2.85c0-.62.5-1.12,1.12-1.12h8.53c1.42,0,2.58,1.15,2.58,2.58v9.2c0,.47-.38.86-.86.86Z"/><path class="cls-2" d="M8.38,6.8h-2.02c-.3,0-.58.12-.79.33l-3.36,3.36c-.21.21-.33.49-.33.79v1.92c0,.62.5,1.12,1.12,1.12h1.51c.3,0,.58-.12.79-.33l3.36-3.36c.21-.21.33-.49.33-.79v-2.43c0-.34-.27-.61-.61-.61Z"/></svg>